<svg version="1.2" xmlns="http://www.w3.org/2000/svg" viewBox="-40 +5 160 160">
	<style>
		.s0 { fill: #f0f6fc }
	</style>
	<path id="Layer" class="s0" d="m1 40.2c-0.1-17.7 14.2-32.1 31.9-32.1h22.2v25.8h-12.1v-22.3h-6.4c-0.7 0-1.4 0.2-2 0.4h0.1c-2.2 0.9-3.7 3.1-3.7 5.6v44.9c0 3.3 2.7 6 6 6h6.1v-22.3h12.1v25.8h-21.9c-17.6-0.1-32.2-14.1-32.3-31.8z"/>
	<path id="Layer" class="s0" d="m34.6 12c0.6-0.3 1.3-0.4 2-0.4-0.6 0-1.3 0.2-2 0.4zm32.7 59.9v-63.9h6.1c3.3 0 6 2.7 6 6v51.9c0 3.3-2.7 6-6 6z"/>
</svg>